<svg width="1043" height="274" viewBox="0 0 1043 274" fill="none" xmlns="http://www.w3.org/2000/svg">
<path d="M40.5797 233.979C36.429 230.823 27.2582 219.092 24.2148 214.685C3.46257 184.194 -4.39153 146.734 2.36495 110.474C8.90759 75.1692 29.1397 43.8832 58.6525 23.433C81.9666 7.38439 109.008 -0.609456 137.239 0.0362218C143.78 0.185837 151.476 0.617914 157.917 1.80782C192.788 7.33634 224.054 26.4419 244.882 54.9498C266.334 84.4114 275.301 121.144 269.839 157.176C268.308 167.305 265.508 177.613 261.713 187.141C261.47 187.752 260.425 190.274 260.104 190.68C257.688 197.194 253.308 204.777 249.603 210.611C234.786 233.934 213.012 252.208 187.683 263.175C185.456 264.139 182.616 265.751 180.969 263.195C180.445 262.456 180.484 262.473 180.35 261.626C179.524 259.131 179.281 252.522 181.729 250.998C185.981 248.347 190.783 246.324 195.222 243.814C204.613 238.429 213.255 231.831 220.926 224.194C244.096 201.473 257.212 170.428 257.352 137.978C257.464 105.021 245.551 73.3579 222.31 49.7287C220.344 47.7294 218.136 45.9193 216.151 43.9177C214.766 42.8925 213.428 41.7686 212.105 40.6661C208.199 37.4145 203.879 34.427 199.553 31.7653C174.541 16.5932 144.98 10.7312 116.072 15.212C84.8697 19.9756 56.84 36.9447 38.1523 62.383C18.5798 89.1211 10.4049 122.528 15.4198 155.283C20.2579 187.541 37.7408 216.546 64.0068 235.889C75.2898 244.2 85.1884 248.859 98.1864 253.624L98.1852 232.571C98.1876 228.705 98.2066 224.824 98.184 220.965C98.1365 214.643 98.1781 208.282 94.1285 203.043C88.4757 195.73 82.5161 187.939 81.1816 178.493C79.8282 168.914 80.2861 158.385 80.3241 148.67C80.3836 132.709 80.5382 116.749 80.7856 100.791L81.0128 84.327C81.0496 81.5261 80.8938 77.9915 81.2958 75.2715C82.5767 66.6062 95.9065 66.8619 96.6165 75.7294C96.9769 80.2274 96.6724 85.075 96.6213 89.6051L96.4393 114.307C96.4072 116.258 96.0647 123.139 96.6605 124.428C98.1436 127.643 103.883 127.321 103.884 122.147C103.884 116.736 103.849 111.322 103.861 105.977L103.887 69.0681C103.887 63.5485 103.629 57.3498 104.27 51.8694C104.421 50.5778 105.725 48.895 106.646 48.0755C110.737 44.1591 118.945 46.6436 119.351 52.5045C119.684 57.3212 119.498 62.4198 119.468 67.2782L119.403 91.5699L119.386 108.647C119.384 110.346 119.577 114.88 119.238 116.4C119.899 122.499 127.543 121.637 128.029 117.882C128.613 113.364 128.297 106.996 128.293 102.326L128.334 60.1554C128.352 53.8128 128.321 47.3465 128.377 41.0086C128.459 31.7558 140.723 30.1561 143.415 37.7142C144.523 40.0179 143.95 57.8243 143.935 61.9691L143.891 102.903C143.892 107.672 143.566 113.199 144.144 117.88C144.589 121.494 151.74 121.826 152.59 118.045C153.269 114.117 152.903 109.446 152.892 105.408L152.939 69.5153C152.942 66.5051 152.712 53.1479 153.354 51.0524C153.924 49.2161 155.184 47.6735 156.869 46.7483C158.839 45.6398 161.184 45.4162 163.329 46.1286C166.082 47.042 168.202 49.3838 168.345 52.3499C168.71 57.081 168.396 64.8127 168.388 69.7626L168.381 103.582L168.436 127.482C168.452 131.502 168.736 136.936 168.264 140.809C166.816 152.674 149.102 156.691 145.987 167.497L146.381 167.597C148.555 166.058 151.346 164.689 153.621 163.178C164.593 156.034 175.336 148.444 177.283 134.459C178.513 125.632 180.085 114.289 187.877 108.637C190.45 106.77 197.016 103.742 199.592 106.988C200.264 107.834 200.414 109.402 200.331 110.443C199.63 116.091 198.727 121.77 198.028 127.424L195.227 148.934C194.535 154.138 193.824 159.32 192.877 164.444C190.262 178.589 181.498 190.347 171.23 200.014C164.026 206.798 160.408 209.02 158.314 219.071C158.027 224.022 158.115 229.429 158.11 234.418L158.121 257.887C158.125 259.955 158.246 270.294 157.985 271.466C147.707 272.756 137.511 273.822 127.127 272.944C125.644 273.01 121.182 272.53 119.512 272.33C94.4211 269.342 70.6812 259.335 51.0242 243.458C48.4981 241.415 42.5409 236.47 40.5797 233.979Z" fill="white"/>
<path d="M430.123 35.7528L388.523 150.633H361.963L320.683 35.7528H346.923L376.043 122.313L405.803 35.7528H430.123ZM467.114 45.3528C467.114 52.8728 461.034 58.4728 452.234 58.4728C443.594 58.4728 437.514 52.8728 437.514 45.3528C437.514 37.5128 443.594 31.9128 452.234 31.9128C461.034 31.9128 467.114 37.5128 467.114 45.3528ZM463.594 150.633H441.354V65.1928H463.594V150.633ZM505.625 104.073V150.633H483.385V65.1928H503.865V77.3528C510.105 68.8728 518.905 63.5928 530.105 63.5928C547.225 63.5928 559.065 74.7928 559.065 95.4328V150.633H536.985V102.953C536.985 90.3128 532.025 83.2728 521.945 83.2728C513.145 83.2728 505.625 90.3128 505.625 104.073ZM572.629 107.913C572.629 82.6328 587.509 63.5928 610.549 63.5928C620.789 63.5928 629.429 68.0728 635.829 76.2328V35.7528H657.909V150.633H637.589V138.313C630.869 147.273 621.589 152.233 610.549 152.233C587.509 152.233 572.629 132.873 572.629 107.913ZM595.509 107.913C595.509 123.913 604.629 132.393 615.509 132.393C626.549 132.393 635.669 123.753 635.669 107.593C635.669 91.4328 626.389 83.2728 615.509 83.2728C604.629 83.2728 595.509 91.5928 595.509 107.913ZM714.88 152.073C689.28 152.073 672.16 134.313 672.16 107.593C672.16 82.1528 689.92 63.5928 714.56 63.5928C741.6 63.5928 759.52 85.5128 755.52 113.353H694.88C696.32 127.273 703.04 134.953 714.4 134.953C724.16 134.953 730.72 130.153 733.28 121.673H755.36C750.56 141.033 735.68 152.073 714.88 152.073ZM714.08 79.9128C703.68 79.9128 697.12 86.6328 695.2 99.2728H732C731.36 87.4328 724.64 79.9128 714.08 79.9128ZM782.998 150.633H758.198L786.998 107.113L760.118 65.1928H785.718L803.158 94.6328L820.758 65.1928H844.118L817.558 107.913L846.198 150.633H820.918L801.718 119.913L782.998 150.633Z" fill="white"/>
<path d="M323.627 215.857C323.627 196.273 337.067 181.297 357.419 181.297C364.139 181.297 370.571 182.929 376.235 185.617L373.451 203.281H370.859L368.075 187.057C364.139 185.137 360.395 184.657 356.843 184.657C341.003 184.657 331.595 198.769 331.595 214.609C331.595 231.121 340.235 245.233 357.131 245.233C361.259 245.233 364.907 244.465 368.267 243.217L370.859 227.473H373.451L376.139 245.041C368.939 247.537 362.699 248.593 355.979 248.593C335.723 248.593 323.627 236.401 323.627 215.857ZM386.482 211.249C390.61 206.833 395.506 203.281 403.09 203.281C412.114 203.281 418.066 208.369 418.066 218.833L417.97 238.705C417.97 244.657 419.602 245.521 425.074 245.521V247.441C422.77 248.209 420.466 248.593 418.642 248.593C414.322 248.593 411.346 246.577 411.346 240.913V238.321C407.122 244.081 402.226 248.593 395.314 248.593C389.554 248.593 385.234 245.137 385.234 239.185C385.234 230.833 393.874 224.017 411.442 220.369C411.346 213.361 408.37 208.177 400.402 208.177C395.218 208.177 390.994 210.289 388.018 212.881L386.482 211.249ZM392.05 237.169C392.05 240.721 394.258 243.505 398.578 243.505C404.05 243.505 408.562 238.801 411.346 234.865L411.442 223.441C400.018 225.937 392.05 230.353 392.05 237.169ZM443.613 190.609V211.441C447.165 207.697 452.253 203.281 460.029 203.281C470.397 203.281 476.349 211.441 476.349 223.153C476.349 237.361 467.805 248.593 453.117 248.593C446.013 248.593 440.349 245.809 436.797 243.601V192.625C436.797 187.729 436.797 185.617 435.837 184.561C435.069 183.697 433.725 183.505 430.365 183.217V181.009C435.645 180.625 438.525 179.761 442.461 178.513L444.093 179.377C443.709 182.545 443.613 186.193 443.613 190.609ZM456.477 208.657C451.293 208.657 447.165 210.961 443.613 214.033V240.913C446.301 243.697 449.565 245.617 454.365 245.617C463.773 245.617 469.341 237.841 469.341 225.745C469.341 216.241 465.789 208.657 456.477 208.657ZM494.847 194.449C491.967 194.449 489.759 192.241 489.759 189.361C489.759 186.577 491.967 184.369 494.847 184.369C497.631 184.369 499.935 186.577 499.935 189.361C499.935 192.241 497.631 194.449 494.847 194.449ZM499.263 215.857V236.305C499.263 240.049 499.455 242.161 500.127 243.409C500.991 244.849 502.911 245.137 506.079 245.521V247.633C501.663 247.345 500.415 247.249 495.903 247.249C491.391 247.249 490.143 247.345 485.727 247.633V245.521C488.799 245.137 490.623 244.849 491.487 243.601C492.351 242.353 492.447 240.241 492.447 236.209V217.777C492.447 212.977 492.447 210.865 491.487 209.809C490.719 208.945 489.375 208.753 486.111 208.369V206.257C491.391 205.777 494.175 205.009 498.207 203.761L499.743 204.625C499.359 207.793 499.263 211.441 499.263 215.857ZM528.138 215.857V236.305C528.138 240.049 528.33 242.161 529.002 243.409C529.866 244.849 531.786 245.137 534.954 245.521V247.633C530.538 247.345 529.29 247.249 524.778 247.249C520.266 247.249 519.018 247.345 514.602 247.633V245.521C517.674 245.137 519.498 244.849 520.362 243.601C521.226 242.353 521.322 240.241 521.322 236.209V217.777C521.322 212.977 521.322 210.865 520.362 209.809C519.594 208.945 518.25 208.753 514.986 208.369V206.257C520.266 205.777 523.146 205.009 527.082 203.761L528.618 204.625C528.426 206.545 528.234 208.561 528.234 210.865C532.65 206.641 537.258 203.281 544.458 203.281C554.25 203.281 559.338 209.425 559.338 220.465V236.305C559.338 240.049 559.434 242.161 560.106 243.409C560.97 244.849 562.89 245.137 566.058 245.521V247.633C561.642 247.345 560.394 247.249 555.882 247.249C551.37 247.249 550.122 247.345 545.706 247.633V245.521C548.778 245.137 550.602 244.849 551.562 243.601C552.33 242.353 552.522 240.241 552.522 236.209V222.769C552.522 211.921 548.01 208.657 541.098 208.657C535.434 208.657 531.21 210.769 528.138 213.553C528.138 214.225 528.138 215.089 528.138 215.857ZM611.484 240.049C607.452 244.561 601.692 248.593 593.532 248.593C580.956 248.593 574.236 239.377 574.236 227.281C574.236 213.745 582.3 203.281 595.452 203.281C605.916 203.281 611.388 210.193 611.388 220.657V224.401H581.244C581.244 224.593 581.244 224.881 581.244 225.169C581.244 236.113 586.236 243.505 596.604 243.505C602.556 243.505 606.876 241.009 609.852 238.225L611.484 240.049ZM593.916 206.161C586.812 206.161 582.3 212.305 581.436 221.809L604.476 221.233C604.476 213.265 601.884 206.161 593.916 206.161ZM634.391 248.593C627.287 248.593 624.119 244.753 624.119 237.073V208.465H617.687V206.353C624.023 205.201 626.903 200.209 628.439 193.201H630.935V204.817L645.815 204.241V208.465H630.935V234.001C630.935 242.161 633.239 244.369 638.327 244.369C640.727 244.369 642.935 243.793 644.951 243.025L645.911 245.425C642.551 247.153 638.807 248.593 634.391 248.593ZM711.199 190.609V234.577C711.199 244.081 712.255 244.657 718.975 244.657V246.769L704.383 248.593V240.433C701.023 244.177 695.839 248.497 688.255 248.497C677.887 248.497 671.455 239.953 671.455 227.953C671.455 213.841 680.383 203.281 694.879 203.281C698.527 203.281 701.695 204.049 704.383 205.009V192.625C704.383 187.729 704.383 185.617 703.423 184.561C702.655 183.697 701.311 183.505 697.951 183.217V181.009C703.231 180.625 706.111 179.761 710.143 178.513L711.679 179.377C711.295 182.545 711.199 186.193 711.199 190.609ZM678.463 225.649C678.463 235.249 682.495 243.121 691.711 243.121C696.799 243.121 700.927 240.913 704.383 237.841V211.057C701.791 208.273 698.527 206.257 693.631 206.257C684.223 206.257 678.463 213.745 678.463 225.649ZM728.469 199.633L725.493 179.473H733.461L730.485 199.633H728.469ZM739.826 211.249C743.954 206.833 748.85 203.281 756.434 203.281C765.458 203.281 771.41 208.369 771.41 218.833L771.314 238.705C771.314 244.657 772.946 245.521 778.418 245.521V247.441C776.114 248.209 773.81 248.593 771.986 248.593C767.666 248.593 764.69 246.577 764.69 240.913V238.321C760.466 244.081 755.57 248.593 748.658 248.593C742.898 248.593 738.578 245.137 738.578 239.185C738.578 230.833 747.218 224.017 764.786 220.369C764.69 213.361 761.714 208.177 753.746 208.177C748.562 208.177 744.338 210.289 741.362 212.881L739.826 211.249ZM745.394 237.169C745.394 240.721 747.602 243.505 751.922 243.505C757.394 243.505 761.906 238.801 764.69 234.865L764.786 223.441C753.362 225.937 745.394 230.353 745.394 237.169ZM779.249 206.353V204.241C784.241 204.529 785.681 204.625 788.849 204.625C791.921 204.625 794.129 204.529 798.065 204.241V206.353C794.129 206.449 792.305 207.025 792.305 209.137C792.305 210.193 792.689 211.537 793.553 213.361L804.785 238.129L815.153 213.649C815.729 212.209 816.113 210.961 816.113 209.809C816.113 207.793 814.577 206.449 810.449 206.353V204.241C813.713 204.529 815.345 204.625 818.321 204.625C821.777 204.625 823.505 204.529 826.865 204.241V206.353C823.505 206.641 821.681 208.369 819.665 212.977L804.017 247.633H801.905L786.545 214.129C784.145 208.753 783.281 206.545 779.249 206.353ZM850.537 248.593C839.305 248.593 829.705 240.913 829.705 227.089C829.705 213.169 839.689 203.281 851.593 203.281C863.017 203.281 872.521 211.633 872.521 225.361C872.521 239.185 862.633 248.593 850.537 248.593ZM851.209 245.521C859.849 245.521 865.033 238.609 865.033 226.609C865.033 215.281 860.329 206.257 850.921 206.257C842.281 206.257 837.097 213.649 837.097 225.553C837.097 236.881 841.801 245.521 851.209 245.521ZM917.917 239.281C914.269 244.273 908.701 248.593 900.733 248.593C889.789 248.593 882.205 240.241 882.205 226.993C882.205 213.745 890.269 203.281 904.669 203.281C909.661 203.281 913.693 204.529 917.053 206.353L914.173 218.833H912.157L909.757 207.601C907.261 206.545 904.957 206.257 903.421 206.257C894.301 206.257 889.213 214.897 889.213 225.169C889.213 236.497 894.685 243.505 903.709 243.505C909.757 243.505 913.693 240.625 916.189 237.553L917.917 239.281ZM926.67 211.249C930.798 206.833 935.694 203.281 943.278 203.281C952.302 203.281 958.254 208.369 958.254 218.833L958.158 238.705C958.158 244.657 959.79 245.521 965.262 245.521V247.441C962.958 248.209 960.654 248.593 958.83 248.593C954.51 248.593 951.534 246.577 951.534 240.913V238.321C947.31 244.081 942.414 248.593 935.502 248.593C929.742 248.593 925.422 245.137 925.422 239.185C925.422 230.833 934.062 224.017 951.63 220.369C951.534 213.361 948.558 208.177 940.59 208.177C935.406 208.177 931.182 210.289 928.206 212.881L926.67 211.249ZM932.238 237.169C932.238 240.721 934.446 243.505 938.766 243.505C944.238 243.505 948.75 238.801 951.534 234.865L951.63 223.441C940.206 225.937 932.238 230.353 932.238 237.169ZM987.641 248.593C980.537 248.593 977.369 244.753 977.369 237.073V208.465H970.937V206.353C977.273 205.201 980.153 200.209 981.689 193.201H984.185V204.817L999.065 204.241V208.465H984.185V234.001C984.185 242.161 986.489 244.369 991.577 244.369C993.977 244.369 996.185 243.793 998.201 243.025L999.161 245.425C995.801 247.153 992.057 248.593 987.641 248.593ZM1019.14 228.433C1011.84 225.265 1006.46 222.385 1006.46 215.569C1006.46 208.369 1013.18 203.281 1022.4 203.281C1026.62 203.281 1031.81 204.145 1035.74 206.449L1033.54 217.297H1031.52L1029.12 207.985C1026.62 206.737 1024.22 206.257 1021.63 206.257C1015.68 206.257 1012.8 209.425 1012.8 213.457C1012.8 217.873 1016.54 219.889 1022.88 222.577C1030.27 225.745 1036.32 228.817 1036.32 236.209C1036.32 244.081 1028.26 248.593 1018.94 248.593C1014.62 248.593 1009.25 247.729 1005.02 245.329L1007.33 234.097H1009.34L1011.94 243.985C1014.62 245.137 1016.93 245.617 1019.81 245.617C1026.24 245.617 1029.89 242.449 1029.89 238.033C1029.89 233.137 1025.86 231.409 1019.14 228.433Z" fill="white"/>
</svg>
