<svg width="1079" height="274" viewBox="0 0 1079 274" fill="none" xmlns="http://www.w3.org/2000/svg">
<path d="M40.5797 233.979C36.429 230.823 27.2582 219.092 24.2148 214.685C3.46257 184.194 -4.39153 146.734 2.36495 110.474C8.90759 75.1692 29.1397 43.8832 58.6525 23.433C81.9666 7.38439 109.008 -0.609456 137.239 0.0362218C143.78 0.185837 151.476 0.617914 157.917 1.80782C192.788 7.33634 224.054 26.4419 244.882 54.9498C266.334 84.4114 275.301 121.144 269.839 157.176C268.308 167.305 265.508 177.613 261.713 187.141C261.47 187.752 260.425 190.274 260.104 190.68C257.688 197.194 253.308 204.777 249.603 210.611C234.786 233.934 213.012 252.208 187.683 263.175C185.456 264.139 182.616 265.751 180.969 263.195C180.445 262.456 180.484 262.473 180.35 261.626C179.524 259.131 179.281 252.522 181.729 250.998C185.981 248.347 190.783 246.324 195.222 243.814C204.613 238.429 213.255 231.831 220.926 224.194C244.096 201.473 257.212 170.428 257.352 137.978C257.464 105.021 245.551 73.3579 222.31 49.7287C220.344 47.7294 218.136 45.9193 216.151 43.9177C214.766 42.8925 213.428 41.7686 212.105 40.6661C208.199 37.4145 203.879 34.427 199.553 31.7653C174.541 16.5932 144.98 10.7312 116.072 15.212C84.8697 19.9756 56.84 36.9447 38.1523 62.383C18.5798 89.1211 10.4049 122.528 15.4198 155.283C20.2579 187.541 37.7408 216.546 64.0068 235.889C75.2898 244.2 85.1884 248.859 98.1864 253.624L98.1852 232.571C98.1876 228.705 98.2066 224.824 98.184 220.965C98.1365 214.643 98.1781 208.282 94.1285 203.043C88.4757 195.73 82.5161 187.939 81.1816 178.493C79.8282 168.914 80.2861 158.385 80.3241 148.67C80.3836 132.709 80.5382 116.749 80.7856 100.791L81.0128 84.327C81.0496 81.5261 80.8938 77.9915 81.2958 75.2715C82.5767 66.6062 95.9065 66.8619 96.6165 75.7294C96.9769 80.2274 96.6724 85.075 96.6213 89.6051L96.4393 114.307C96.4072 116.258 96.0647 123.139 96.6605 124.428C98.1436 127.643 103.883 127.321 103.884 122.147C103.884 116.736 103.849 111.322 103.861 105.977L103.887 69.0681C103.887 63.5485 103.629 57.3498 104.27 51.8694C104.421 50.5778 105.725 48.895 106.646 48.0755C110.737 44.1591 118.945 46.6436 119.351 52.5045C119.684 57.3212 119.498 62.4198 119.468 67.2782L119.403 91.5699L119.386 108.647C119.384 110.346 119.577 114.88 119.238 116.4C119.899 122.499 127.543 121.637 128.029 117.882C128.613 113.364 128.297 106.996 128.293 102.326L128.334 60.1554C128.352 53.8128 128.321 47.3465 128.377 41.0086C128.459 31.7558 140.723 30.1561 143.415 37.7142C144.523 40.0179 143.95 57.8243 143.935 61.9691L143.891 102.903C143.892 107.672 143.566 113.199 144.144 117.88C144.589 121.494 151.74 121.826 152.59 118.045C153.269 114.117 152.903 109.446 152.892 105.408L152.939 69.5153C152.942 66.5051 152.712 53.1479 153.354 51.0524C153.924 49.2161 155.184 47.6735 156.869 46.7483C158.839 45.6398 161.184 45.4162 163.329 46.1286C166.082 47.042 168.202 49.3838 168.345 52.3499C168.71 57.081 168.396 64.8127 168.388 69.7626L168.381 103.582L168.436 127.482C168.452 131.502 168.736 136.936 168.264 140.809C166.816 152.674 149.102 156.691 145.987 167.497L146.381 167.597C148.555 166.058 151.346 164.689 153.621 163.178C164.593 156.034 175.336 148.444 177.283 134.459C178.513 125.632 180.085 114.289 187.877 108.637C190.45 106.77 197.016 103.742 199.592 106.988C200.264 107.834 200.414 109.402 200.331 110.443C199.63 116.091 198.727 121.77 198.028 127.424L195.227 148.934C194.535 154.138 193.824 159.32 192.877 164.444C190.262 178.589 181.498 190.347 171.23 200.014C164.026 206.798 160.408 209.02 158.314 219.071C158.027 224.022 158.115 229.429 158.11 234.418L158.121 257.887C158.125 259.955 158.246 270.294 157.985 271.466C147.707 272.756 137.511 273.822 127.127 272.944C125.644 273.01 121.182 272.53 119.512 272.33C94.4211 269.342 70.6812 259.335 51.0242 243.458C48.4981 241.415 42.5409 236.47 40.5797 233.979Z" fill="white"/>
<path d="M431.163 37.692L394.763 138.212H371.523L335.403 37.692H358.363L383.843 113.432L409.883 37.692H431.163Z" fill="white"/>
<path d="M463.53 46.092C463.53 52.672 458.21 57.572 450.51 57.572C442.95 57.572 437.63 52.672 437.63 46.092C437.63 39.232 442.95 34.332 450.51 34.332C458.21 34.332 463.53 39.232 463.53 46.092ZM460.45 138.212H440.99V63.452H460.45V138.212Z" fill="white"/>
<path d="M497.228 97.472V138.212H477.768V63.452H495.688V74.092C501.148 66.672 508.848 62.052 518.648 62.052C533.628 62.052 543.988 71.852 543.988 89.912V138.212H524.668V96.492C524.668 85.432 520.328 79.272 511.508 79.272C503.808 79.272 497.228 85.432 497.228 97.472Z" fill="white"/>
<path d="M555.856 100.832C555.856 78.712 568.876 62.052 589.036 62.052C597.996 62.052 605.556 65.972 611.156 73.112V37.692H630.476V138.212H612.696V127.432C606.816 135.272 598.696 139.612 589.036 139.612C568.876 139.612 555.856 122.672 555.856 100.832ZM575.876 100.832C575.876 114.832 583.856 122.252 593.376 122.252C603.036 122.252 611.016 114.692 611.016 100.552C611.016 86.412 602.896 79.272 593.376 79.272C583.856 79.272 575.876 86.552 575.876 100.832Z" fill="white"/>
<path d="M680.326 139.472C657.926 139.472 642.946 123.932 642.946 100.552C642.946 78.292 658.486 62.052 680.046 62.052C703.706 62.052 719.386 81.232 715.886 105.592H662.826C664.086 117.772 669.966 124.492 679.906 124.492C688.446 124.492 694.186 120.292 696.426 112.872H715.746C711.546 129.812 698.526 139.472 680.326 139.472ZM679.626 76.332C670.526 76.332 664.786 82.212 663.106 93.272H695.306C694.746 82.912 688.866 76.332 679.626 76.332Z" fill="white"/>
<path d="M739.928 138.212H718.228L743.428 100.132L719.908 63.452H742.308L757.568 89.212L772.968 63.452H793.408L770.168 100.832L795.228 138.212H773.108L756.308 111.332L739.928 138.212Z" fill="white"/>
<path d="M378.993 238.931C360.993 238.931 347.403 224.261 347.403 205.181C347.403 186.191 360.993 171.611 378.993 171.611C394.383 171.611 407.073 181.961 409.593 197.351H402.483C400.413 185.831 390.873 177.641 378.993 177.641C364.683 177.641 354.333 189.341 354.333 205.181C354.333 221.201 364.683 232.901 378.993 232.901C390.963 232.901 400.503 224.621 402.483 213.101H409.593C407.073 228.491 394.383 238.931 378.993 238.931Z" fill="white"/>
<path d="M449.236 237.581V228.941C446.446 234.881 440.686 238.481 433.306 238.481C423.496 238.481 417.106 232.991 417.106 224.441C417.106 215.171 424.486 210.311 438.886 210.311C441.766 210.311 443.926 210.491 448.606 210.851V206.891C448.606 198.971 444.376 194.291 437.176 194.291C429.436 194.291 424.576 199.061 424.486 206.801H418.726C418.996 196.271 426.286 189.251 437.086 189.251C448.156 189.251 454.636 195.731 454.636 206.711V237.581H449.236ZM423.136 224.261C423.136 230.021 427.546 233.891 434.206 233.891C443.026 233.891 448.606 228.131 448.606 219.221V214.991C444.556 214.631 441.766 214.541 439.156 214.541C428.356 214.541 423.136 217.691 423.136 224.261Z" fill="white"/>
<path d="M511.359 213.821C511.359 228.401 503.169 238.481 490.479 238.481C483.189 238.481 477.069 234.521 473.739 227.591V237.581H467.889V172.961H474.189V200.141C477.249 193.211 483.279 189.251 490.479 189.251C503.169 189.251 511.359 199.241 511.359 213.821ZM504.969 213.821C504.969 201.761 498.759 194.741 489.489 194.741C480.579 194.741 474.099 201.671 474.099 213.641C474.099 225.521 480.399 232.991 489.489 232.991C498.759 232.991 504.969 225.881 504.969 213.821Z" fill="white"/>
<path d="M529.692 179.171C529.692 181.961 527.622 183.941 524.562 183.941C521.592 183.941 519.522 181.961 519.522 179.171C519.522 176.471 521.592 174.491 524.562 174.491C527.622 174.491 529.692 176.471 529.692 179.171ZM527.802 237.581H521.502V190.151H527.802V237.581Z" fill="white"/>
<path d="M547.753 209.951V237.581H541.453V190.151H547.303V199.061C550.363 193.211 556.123 189.251 562.963 189.251C572.863 189.251 579.253 195.551 579.253 206.801V237.581H572.953V208.961C572.953 199.871 568.813 194.741 561.073 194.741C553.693 194.741 547.753 201.131 547.753 209.951Z" fill="white"/>
<path d="M611.148 238.481C597.828 238.481 589.008 228.491 589.008 213.461C589.008 199.601 598.188 189.251 610.788 189.251C624.288 189.251 633.108 200.141 632.028 215.351H595.308C595.848 226.601 601.788 233.531 611.058 233.531C618.978 233.531 624.468 229.121 625.998 221.561H632.208C630.048 232.091 622.038 238.481 611.148 238.481ZM610.698 194.111C602.148 194.111 596.118 200.681 595.308 211.031H625.458C624.918 200.411 619.428 194.111 610.698 194.111Z" fill="white"/>
<path d="M666.742 231.551V237.131C664.312 238.121 662.242 238.481 659.902 238.481C652.072 238.481 646.042 234.431 646.042 224.171V195.461H634.882V190.151H646.042V176.111H652.342V190.151H667.192V195.461H652.342V222.821C652.342 230.201 655.942 232.721 661.162 232.721C663.142 232.721 664.762 232.361 666.742 231.551Z" fill="white"/>
<path d="M692.016 213.821C692.016 199.241 700.116 189.251 712.896 189.251C720.006 189.251 726.036 193.301 729.186 200.051V172.961H735.486V237.581H729.636V227.591C726.306 234.521 720.186 238.481 712.896 238.481C700.116 238.481 692.016 228.401 692.016 213.821ZM698.406 213.821C698.406 225.881 704.526 232.991 713.796 232.991C722.976 232.991 729.276 225.521 729.276 213.641C729.276 201.671 722.796 194.741 713.796 194.741C704.526 194.741 698.406 201.761 698.406 213.821Z" fill="white"/>
<path d="M756.159 189.791H751.389L750.849 172.961H756.789L756.159 189.791Z" fill="white"/>
<path d="M801.326 237.581V228.941C798.536 234.881 792.776 238.481 785.396 238.481C775.586 238.481 769.196 232.991 769.196 224.441C769.196 215.171 776.576 210.311 790.976 210.311C793.856 210.311 796.016 210.491 800.696 210.851V206.891C800.696 198.971 796.466 194.291 789.266 194.291C781.526 194.291 776.666 199.061 776.576 206.801H770.816C771.086 196.271 778.376 189.251 789.176 189.251C800.246 189.251 806.726 195.731 806.726 206.711V237.581H801.326ZM775.226 224.261C775.226 230.021 779.636 233.891 786.296 233.891C795.116 233.891 800.696 228.131 800.696 219.221V214.991C796.646 214.631 793.856 214.541 791.246 214.541C780.446 214.541 775.226 217.691 775.226 224.261Z" fill="white"/>
<path d="M855.113 190.151L836.843 237.581H830.273L812.183 190.151H818.933L833.783 230.201L848.633 190.151H855.113Z" fill="white"/>
<path d="M880.014 238.481C866.964 238.481 857.514 228.131 857.514 213.821C857.514 199.601 866.964 189.341 880.014 189.341C893.154 189.341 902.604 199.601 902.604 213.821C902.604 228.131 893.154 238.481 880.014 238.481ZM880.014 232.991C889.284 232.991 896.214 225.611 896.214 213.821C896.214 202.211 889.284 194.831 880.014 194.831C870.834 194.831 863.904 202.211 863.904 213.821C863.904 225.611 870.834 232.991 880.014 232.991Z" fill="white"/>
<path d="M930.521 238.571C918.011 238.571 909.281 228.401 909.281 213.821C909.281 199.421 918.101 189.251 930.521 189.251C941.591 189.251 949.511 196.631 951.401 208.511H945.011C943.571 199.871 938.171 194.741 930.521 194.741C921.701 194.741 915.671 202.481 915.671 213.821C915.671 225.341 921.701 233.081 930.521 233.081C938.261 233.081 943.571 228.041 945.011 219.221H951.401C949.691 231.281 941.681 238.571 930.521 238.571Z" fill="white"/>
<path d="M990.731 237.581V228.941C987.941 234.881 982.181 238.481 974.801 238.481C964.991 238.481 958.601 232.991 958.601 224.441C958.601 215.171 965.981 210.311 980.381 210.311C983.261 210.311 985.421 210.491 990.101 210.851V206.891C990.101 198.971 985.871 194.291 978.671 194.291C970.931 194.291 966.071 199.061 965.981 206.801H960.221C960.491 196.271 967.781 189.251 978.581 189.251C989.651 189.251 996.131 195.731 996.131 206.711V237.581H990.731ZM964.631 224.261C964.631 230.021 969.041 233.891 975.701 233.891C984.521 233.891 990.101 228.131 990.101 219.221V214.991C986.051 214.631 983.261 214.541 980.651 214.541C969.851 214.541 964.631 217.691 964.631 224.261Z" fill="white"/>
<path d="M1033.51 231.551V237.131C1031.08 238.121 1029.01 238.481 1026.67 238.481C1018.84 238.481 1012.81 234.431 1012.81 224.171V195.461H1001.65V190.151H1012.81V176.111H1019.11V190.151H1033.96V195.461H1019.11V222.821C1019.11 230.201 1022.71 232.721 1027.93 232.721C1029.91 232.721 1031.53 232.361 1033.51 231.551Z" fill="white"/>
<path d="M1078.86 224.351C1078.86 233.081 1071.84 238.481 1060.14 238.481C1048.35 238.481 1041.15 232.541 1040.25 222.731H1046.28C1046.73 229.481 1052.04 233.711 1060.14 233.711C1067.88 233.711 1072.56 230.741 1072.56 225.341C1072.56 220.661 1069.86 218.501 1062.66 217.061L1055.82 215.711C1046.82 214.001 1042.05 209.591 1042.05 202.751C1042.05 194.831 1049.07 189.251 1059.42 189.251C1070.31 189.251 1077.51 195.101 1078.23 204.551H1072.29C1071.66 197.981 1066.89 194.111 1059.42 194.111C1052.76 194.111 1048.17 197.261 1048.17 202.211C1048.17 206.891 1051.05 209.141 1058.07 210.491L1065.18 211.841C1074.63 213.641 1078.86 217.601 1078.86 224.351Z" fill="white"/>
</svg>
